<svg xmlns="http://www.w3.org/2000/svg" viewBox="0 0 43.3 13.93"><polygon points="4.3 13.93 0 13.93 9.75 0 14.06 0 4.3 13.93" fill="#16405a"/><polygon points="12.27 13.93 7.97 13.93 17.72 0 22.02 0 12.27 13.93" fill="#16405a"/><polygon points="14.05 0 9.75 0 19.5 13.93 23.81 13.93 14.05 0" fill="#23bbd5"/><polygon points="23.81 13.93 19.5 13.93 29.25 0 33.56 0 23.81 13.93" fill="#16405a"/><polygon points="31.77 13.93 27.47 13.93 37.22 0 41.53 0 31.77 13.93" fill="#16405a"/><polygon points="33.54 0 29.24 0 38.99 13.93 43.3 13.93 33.54 0" fill="#23bbd5"/><polygon points="22.02 0 17.72 0 27.47 13.93 31.77 13.93 22.02 0" fill="#23bbd5"/></svg>