<svg xmlns="http://www.w3.org/2000/svg" viewBox="0 0 31.77 27.86"><polygon points="14.05 0 9.75 0 19.5 13.93 23.81 13.93 14.05 0" fill="#23bbd5"/><polygon points="4.3 13.93 0 13.93 9.75 0 14.06 0 4.3 13.93" fill="#f37264"/><polygon points="12.27 13.93 7.97 13.93 17.72 0 22.02 0 12.27 13.93" fill="#f37264"/><polygon points="22.02 0 17.72 0 27.47 13.93 31.77 13.93 22.02 0" fill="#23bbd5"/><polygon points="27.47 13.93 31.77 13.93 22.02 27.86 17.72 27.86 27.47 13.93" fill="#f37264"/><polygon points="19.5 13.93 23.81 13.93 14.05 27.86 9.75 27.86 19.5 13.93" fill="#f37264"/><polygon points="17.72 27.86 22.02 27.86 12.27 13.93 7.97 13.93 17.72 27.86" fill="#16405a"/><polygon points="9.75 27.86 14.06 27.86 4.3 13.93 0 13.93 9.75 27.86" fill="#16405a"/></svg>