<svg xmlns="http://www.w3.org/2000/svg" xmlns:xlink="http://www.w3.org/1999/xlink" viewBox="0 0 43.31 13.93"><defs><linearGradient id="a" x1="29.25" y1="6.96" x2="43.31" y2="6.96" gradientUnits="userSpaceOnUse"><stop offset="0"/><stop offset="1" stop-color="#fff" stop-opacity="0"/></linearGradient><linearGradient id="b" x1="17.35" y1="6.96" x2="31.4" y2="6.96" xlink:href="#a"/><linearGradient id="c" x1="19.5" y1="6.96" x2="33.56" y2="6.96" gradientUnits="userSpaceOnUse"><stop offset="0" stop-color="#fff" stop-opacity="0"/><stop offset="1" stop-opacity="0.3"/></linearGradient><linearGradient id="d" x1="9.75" y1="6.96" x2="23.81" y2="6.96" xlink:href="#a"/><linearGradient id="e" y1="6.96" x2="14.06" y2="6.96" gradientUnits="userSpaceOnUse"><stop offset="0" stop-color="#fff" stop-opacity="0"/><stop offset="1"/></linearGradient><linearGradient id="f" x1="7.6" y1="6.96" x2="21.65" y2="6.96" xlink:href="#e"/><linearGradient id="g" x1="27.1" y1="6.96" x2="41.16" y2="6.96" xlink:href="#c"/></defs><g style="isolation:isolate"><polygon points="33.55 0 29.25 0 39 13.93 43.31 13.93 33.55 0" fill="#f37264"/><polygon points="33.55 0 29.25 0 39 13.93 43.31 13.93 33.55 0" fill="url(#a)" style="mix-blend-mode:multiply"/><polygon points="21.65 0 17.35 0 27.1 13.93 31.4 13.93 21.65 0" fill="#f37264"/><polygon points="21.65 0 17.35 0 27.1 13.93 31.4 13.93 21.65 0" fill="url(#b)" style="mix-blend-mode:multiply"/><polygon points="23.81 13.93 19.5 13.93 29.25 0 33.56 0 23.81 13.93" fill="#f6ebe4"/><polygon points="23.81 13.93 19.5 13.93 29.25 0 33.56 0 23.81 13.93" fill="url(#c)" style="mix-blend-mode:multiply"/><polygon points="14.05 0 9.75 0 19.5 13.93 23.81 13.93 14.05 0" fill="#f37264"/><polygon points="14.05 0 9.75 0 19.5 13.93 23.81 13.93 14.05 0" fill="url(#d)" style="mix-blend-mode:multiply"/><polygon points="4.3 13.93 0 13.93 9.75 0 14.06 0 4.3 13.93" fill="#23bbd5"/><polygon points="4.3 13.93 0 13.93 9.75 0 14.06 0 4.3 13.93" fill="url(#e)" style="mix-blend-mode:overlay"/><polygon points="31.4 13.93 27.1 13.93 36.85 0 41.16 0 31.4 13.93" fill="#f6ebe4"/><polygon points="11.9 13.93 7.6 13.93 17.35 0 21.65 0 11.9 13.93" fill="#23bbd5"/><polygon points="11.9 13.93 7.6 13.93 17.35 0 21.65 0 11.9 13.93" fill="url(#f)" style="mix-blend-mode:overlay"/><polygon points="31.4 13.93 27.1 13.93 36.85 0 41.16 0 31.4 13.93" fill="url(#g)" style="mix-blend-mode:multiply"/></g></svg>